<svg xmlns="http://www.w3.org/2000/svg" width="1200" height="630" viewBox="0 0 1200 630" role="img" aria-labelledby="title desc"><title id="title">Market Changelog Upper Index social card</title><desc id="desc">Evergreen 1200 by 630 social image.</desc><rect width="1200" height="630" fill="#f5f3ea"/><g transform="translate(80 60) scale(0.108)"><rect x="165" y="150" width="650" height="700" rx="96" fill="#0d3328"/><rect x="829" y="272" width="70" height="196" rx="22" fill="#f18a68"/><rect x="305" y="415" width="330" height="104" rx="34" fill="#cbef84"/></g><path d="M1798 0H1479V858Q1479 997 1491 1165H1483Q1458 1033 1438 975L1102 0H838L496 965Q482 1004 451 1165H442Q455 953 455 793V0H164V1434H637L930 584Q965 482 981 379H987Q1014 498 1044 586L1337 1434H1798ZM2945 0H2646V147H2642Q2539 -25 2337 -25Q2188 -25 2102.5 59.5Q2017 144 2017 285Q2017 583 2370 629L2648 666Q2648 834 2466 834Q2283 834 2118 725V963Q2184 997 2298.5 1023.0Q2413 1049 2507 1049Q2945 1049 2945 612ZM2648 416V485L2462 461Q2308 441 2308 322Q2308 268 2345.5 233.5Q2383 199 2447 199Q2536 199 2592.0 260.5Q2648 322 2648 416ZM3863 739Q3806 770 3730 770Q3627 770 3569.0 694.5Q3511 619 3511 489V0H3195V1024H3511V834H3515Q3590 1042 3785 1042Q3835 1042 3863 1030ZM5036 0H4657L4330 508H4326V0H4010V1516H4326V551H4330L4635 1024H5010L4643 543ZM6075 422H5407Q5423 199 5688 199Q5857 199 5985 279V51Q5843 -25 5616 -25Q5368 -25 5231.0 112.5Q5094 250 5094 496Q5094 751 5242.0 900.0Q5390 1049 5606 1049Q5830 1049 5952.5 916.0Q6075 783 6075 555ZM5782 616Q5782 836 5604 836Q5528 836 5472.5 773.0Q5417 710 5405 616ZM6882 12Q6812 -25 6671 -25Q6337 -25 6337 322V791H6171V1024H6337V1245L6652 1335V1024H6882V791H6652V377Q6652 217 6779 217Q6829 217 6882 246ZM8684 51Q8527 -25 8274 -25Q7944 -25 7755.0 169.0Q7566 363 7566 686Q7566 1030 7778.5 1244.0Q7991 1458 8330 1458Q8540 1458 8684 1405V1094Q8540 1180 8356 1180Q8154 1180 8030.0 1053.0Q7906 926 7906 709Q7906 501 8023.0 377.5Q8140 254 8338 254Q8527 254 8684 346ZM9886 0H9571V582Q9571 807 9407 807Q9323 807 9271.0 744.0Q9219 681 9219 584V0H8903V1516H9219V872H9223Q9339 1049 9538 1049Q9886 1049 9886 629ZM10988 0H10689V147H10685Q10582 -25 10380 -25Q10231 -25 10145.5 59.5Q10060 144 10060 285Q10060 583 10413 629L10691 666Q10691 834 10509 834Q10326 834 10161 725V963Q10227 997 10341.5 1023.0Q10456 1049 10550 1049Q10988 1049 10988 612ZM10691 416V485L10505 461Q10351 441 10351 322Q10351 268 10388.5 233.5Q10426 199 10490 199Q10579 199 10635.0 260.5Q10691 322 10691 416ZM12227 0H11912V569Q11912 807 11742 807Q11660 807 11607.0 744.0Q11554 681 11554 584V0H11238V1024H11554V862H11558Q11671 1049 11887 1049Q12227 1049 12227 627ZM13481 117Q13481 -168 13316.0 -324.5Q13151 -481 12838 -481Q12631 -481 12510 -422V-156Q12668 -248 12829 -248Q12989 -248 13077.0 -163.5Q13165 -79 13165 66V147H13161Q13053 -25 12842 -25Q12646 -25 12531.0 113.0Q12416 251 12416 483Q12416 743 12544.0 896.0Q12672 1049 12881 1049Q13068 1049 13161 905H13165V1024H13481ZM13169 492V573Q13169 670 13111.5 738.5Q13054 807 12962 807Q12857 807 12797.0 725.0Q12737 643 12737 494Q12737 366 12794.0 291.5Q12851 217 12950 217Q13048 217 13108.5 292.5Q13169 368 13169 492ZM14665 422H13997Q14013 199 14278 199Q14447 199 14575 279V51Q14433 -25 14206 -25Q13958 -25 13821.0 112.5Q13684 250 13684 496Q13684 751 13832.0 900.0Q13980 1049 14196 1049Q14420 1049 14542.5 916.0Q14665 783 14665 555ZM14372 616Q14372 836 14194 836Q14118 836 14062.5 773.0Q14007 710 13995 616ZM15169 0H14853V1516H15169ZM15923 -25Q15667 -25 15520.5 118.5Q15374 262 15374 508Q15374 762 15526.0 905.5Q15678 1049 15937 1049Q16192 1049 16337.0 905.5Q16482 762 16482 526Q16482 271 16332.5 123.0Q16183 -25 15923 -25ZM15931 807Q15819 807 15757.0 730.0Q15695 653 15695 512Q15695 217 15933 217Q16160 217 16160 520Q16160 807 15931 807ZM17691 117Q17691 -168 17526.0 -324.5Q17361 -481 17048 -481Q16841 -481 16720 -422V-156Q16878 -248 17039 -248Q17199 -248 17287.0 -163.5Q17375 -79 17375 66V147H17371Q17263 -25 17052 -25Q16856 -25 16741.0 113.0Q16626 251 16626 483Q16626 743 16754.0 896.0Q16882 1049 17091 1049Q17278 1049 17371 905H17375V1024H17691ZM17379 492V573Q17379 670 17321.5 738.5Q17264 807 17172 807Q17067 807 17007.0 725.0Q16947 643 16947 494Q16947 366 17004.0 291.5Q17061 217 17160 217Q17258 217 17318.5 292.5Q17379 368 17379 492Z" fill="#10231d" transform="translate(212.000 132.000) scale(0.0185547 -0.0185547)"/><path d="M664 -38Q534 -38 421.5 -6.0Q309 26 231 70L162 0H77L64 513H150Q179 440 224.0 359.0Q269 278 328 214Q389 147 464.5 105.0Q540 63 641 63Q777 63 849.5 129.5Q922 196 922 297Q922 380 860.5 436.5Q799 493 670 534Q586 561 515.5 584.0Q445 607 383 631Q240 688 170.5 794.0Q101 900 101 1031Q101 1114 137.0 1190.5Q173 1267 242 1328Q308 1385 411.0 1421.0Q514 1457 635 1457Q753 1457 856.0 1424.5Q959 1392 1018 1359L1079 1419H1166L1174 935H1088Q1058 1013 1017.5 1094.5Q977 1176 932 1230Q883 1288 819.0 1322.5Q755 1357 669 1357Q561 1357 492.5 1296.0Q424 1235 424 1145Q424 1060 483.5 1006.0Q543 952 669 911Q743 886 820.0 861.0Q897 836 957 813Q1102 757 1177.5 658.5Q1253 560 1253 414Q1253 322 1210.0 236.0Q1167 150 1094 93Q1014 30 909.0 -4.0Q804 -38 664 -38ZM2131 46Q2067 18 1994.0 -4.5Q1921 -27 1816 -27Q1660 -27 1584.5 49.0Q1509 125 1509 266V880H1329V988H1513V1291H1838V988H2118V880H1840V332Q1840 215 1872.5 166.0Q1905 117 1989 117Q2016 117 2064.0 121.0Q2112 125 2131 130ZM3344 21Q3300 2 3240.0 -14.0Q3180 -30 3113 -30Q2990 -30 2932.0 6.5Q2874 43 2853 111H2847Q2813 77 2781.5 53.0Q2750 29 2714 12Q2667 -10 2623.5 -20.5Q2580 -31 2502 -31Q2386 -31 2304.0 37.5Q2222 106 2222 219Q2222 284 2240.0 329.5Q2258 375 2291 410Q2321 442 2360.5 463.0Q2400 484 2447 502Q2537 535 2663.0 570.5Q2789 606 2847 634V730Q2847 755 2843.0 796.0Q2839 837 2826 865Q2812 897 2782.0 919.0Q2752 941 2703 941Q2659 941 2629.5 928.5Q2600 916 2582 903Q2585 883 2599.0 842.0Q2613 801 2613 763Q2613 746 2604.0 720.5Q2595 695 2578 680Q2555 660 2526.5 649.0Q2498 638 2439 638Q2355 638 2312.0 678.5Q2269 719 2269 784Q2269 840 2313.5 884.5Q2358 929 2422 958Q2485 988 2567.0 1004.5Q2649 1021 2719 1021Q2816 1021 2897.0 1009.5Q2978 998 3043 962Q3105 927 3141.5 860.5Q3178 794 3178 687Q3178 574 3173.5 419.0Q3169 264 3169 215Q3169 170 3182.5 144.0Q3196 118 3224 105Q3241 97 3277.5 95.5Q3314 94 3344 94ZM2847 542Q2791 523 2736.0 498.5Q2681 474 2646 447Q2609 419 2588.0 375.5Q2567 332 2567 273Q2567 195 2602.5 160.0Q2638 125 2690 125Q2745 125 2780.5 147.5Q2816 170 2843 203ZM4614 489Q4614 264 4465.5 116.0Q4317 -32 4089 -32Q4001 -32 3937.5 -19.5Q3874 -7 3830 11Q3784 30 3756.5 48.5Q3729 67 3713 79L3570 -51L3511 -28Q3516 45 3519.5 130.5Q3523 216 3523 361V1297Q3523 1335 3507.5 1367.5Q3492 1400 3466 1417Q3447 1429 3410.5 1438.0Q3374 1447 3343 1449V1522L3837 1548L3852 1532V882H3858Q3931 953 4008.0 986.0Q4085 1019 4162 1019Q4372 1019 4493.0 876.0Q4614 733 4614 489ZM4255 477Q4255 553 4243.5 623.5Q4232 694 4205 748Q4178 802 4134.0 834.5Q4090 867 4025 867Q3964 867 3924.0 847.0Q3884 827 3852 788V206Q3858 186 3874.5 153.5Q3891 121 3908 103Q3932 77 3959.0 63.5Q3986 50 4035 50Q4137 50 4196.0 161.5Q4255 273 4255 477ZM5352 0H4725V73Q4751 75 4775.5 78.0Q4800 81 4819 88Q4851 100 4862.5 122.5Q4874 145 4874 182V1290Q4874 1328 4858.5 1360.5Q4843 1393 4817 1410Q4797 1423 4756.5 1435.0Q4716 1447 4685 1449V1522L5188 1548L5203 1532V195Q5203 158 5216.0 135.0Q5229 112 5258 99Q5278 90 5300.0 83.0Q5322 76 5352 73ZM6523 239Q6488 182 6438.5 131.5Q6389 81 6326 45Q6259 7 6190.5 -12.5Q6122 -32 6033 -32Q5885 -32 5777.5 10.0Q5670 52 5600 123Q5530 194 5495.5 290.5Q5461 387 5461 500Q5461 602 5498.5 695.5Q5536 789 5605 862Q5673 933 5776.5 977.0Q5880 1021 6008 1021Q6148 1021 6238.0 987.0Q6328 953 6387 893Q6444 836 6470.0 758.5Q6496 681 6496 596V531H5820Q5820 326 5899.0 219.0Q5978 112 6150 112Q6244 112 6319.0 163.5Q6394 215 6447 294ZM6141 619Q6141 679 6135.0 742.0Q6129 805 6114 845Q6097 892 6067.5 916.0Q6038 940 5993 940Q5916 940 5870.0 862.0Q5824 784 5820 615ZM8214 239Q8179 182 8129.5 131.5Q8080 81 8017 45Q7950 7 7881.5 -12.5Q7813 -32 7724 -32Q7576 -32 7468.5 10.0Q7361 52 7291 123Q7221 194 7186.5 290.5Q7152 387 7152 500Q7152 602 7189.5 695.5Q7227 789 7296 862Q7364 933 7467.5 977.0Q7571 1021 7699 1021Q7839 1021 7929.0 987.0Q8019 953 8078 893Q8135 836 8161.0 758.5Q8187 681 8187 596V531H7511Q7511 326 7590.0 219.0Q7669 112 7841 112Q7935 112 8010.0 163.5Q8085 215 8138 294ZM7832 619Q7832 679 7826.0 742.0Q7820 805 7805 845Q7788 892 7758.5 916.0Q7729 940 7684 940Q7607 940 7561.0 862.0Q7515 784 7511 615ZM9450 919Q9405 912 9362.5 885.0Q9320 858 9292 801Q9222 655 9154.5 506.5Q9087 358 9022 219Q9002 177 8976.5 111.0Q8951 45 8934 -9H8750Q8635 258 8553.5 434.0Q8472 610 8381 812Q8360 859 8315.5 886.0Q8271 913 8225 919V992H8841V919Q8807 918 8761.0 904.0Q8715 890 8715 868Q8715 862 8719.0 850.0Q8723 838 8729 823Q8761 747 8825.5 604.0Q8890 461 8962 303Q9012 412 9057.5 516.5Q9103 621 9170 783Q9179 807 9180.5 822.0Q9182 837 9182 842Q9182 860 9164.5 873.5Q9147 887 9123 897Q9098 907 9075.0 912.0Q9052 917 9037 919V992H9450ZM10103 0H9471V73Q9497 75 9522.0 78.0Q9547 81 9565 88Q9597 100 9610.0 122.5Q9623 145 9623 182V764Q9623 799 9607.0 825.5Q9591 852 9567 868Q9549 880 9512.5 891.0Q9476 902 9446 905V978L9936 1004L9951 989V195Q9951 160 9966.0 135.5Q9981 111 10009 99Q10029 90 10053.0 83.0Q10077 76 10103 73ZM9957 1364Q9957 1288 9898.5 1234.5Q9840 1181 9760 1181Q9679 1181 9620.5 1234.5Q9562 1288 9562 1364Q9562 1440 9620.5 1494.0Q9679 1548 9760 1548Q9841 1548 9899.0 1494.0Q9957 1440 9957 1364ZM11488 21 10995 -8 10980 6V98L10973 100Q10924 47 10840.5 7.5Q10757 -32 10672 -32Q10470 -32 10339.0 118.0Q10208 268 10208 506Q10208 717 10354.5 868.0Q10501 1019 10709 1019Q10791 1019 10863.0 1000.5Q10935 982 10978 957V1284Q10978 1321 10963.0 1353.5Q10948 1386 10923 1404Q10892 1426 10845.5 1435.5Q10799 1445 10752 1449V1522L11292 1548L11307 1532V221Q11307 183 11319.5 157.0Q11332 131 11360 116Q11381 105 11421.5 100.0Q11462 95 11488 94ZM10978 199V764Q10971 787 10958.5 815.0Q10946 843 10924 868Q10904 889 10870.5 905.0Q10837 921 10795 921Q10695 921 10631.0 808.0Q10567 695 10567 489Q10567 408 10578.5 343.5Q10590 279 10619 226Q10648 173 10693.5 143.0Q10739 113 10803 113Q10864 113 10904.0 136.5Q10944 160 10978 199ZM12628 239Q12593 182 12543.5 131.5Q12494 81 12431 45Q12364 7 12295.5 -12.5Q12227 -32 12138 -32Q11990 -32 11882.5 10.0Q11775 52 11705 123Q11635 194 11600.5 290.5Q11566 387 11566 500Q11566 602 11603.5 695.5Q11641 789 11710 862Q11778 933 11881.5 977.0Q11985 1021 12113 1021Q12253 1021 12343.0 987.0Q12433 953 12492 893Q12549 836 12575.0 758.5Q12601 681 12601 596V531H11925Q11925 326 12004.0 219.0Q12083 112 12255 112Q12349 112 12424.0 163.5Q12499 215 12552 294ZM12246 619Q12246 679 12240.0 742.0Q12234 805 12219 845Q12202 892 12172.5 916.0Q12143 940 12098 940Q12021 940 11975.0 862.0Q11929 784 11925 615ZM14044 0H13442V73Q13461 75 13488.0 78.0Q13515 81 13529 88Q13550 99 13559.0 120.0Q13568 141 13568 182V650Q13568 752 13530.5 803.5Q13493 855 13420 855Q13380 855 13345.5 843.0Q13311 831 13278 808Q13249 788 13231.5 767.0Q13214 746 13202 730V193Q13202 158 13212.0 134.5Q13222 111 13245 99Q13261 90 13285.0 83.0Q13309 76 13332 73V0H12724V73Q12749 75 12774.5 78.5Q12800 82 12818 88Q12850 99 12862.0 122.0Q12874 145 12874 182V764Q12874 795 12858.0 825.0Q12842 855 12816 874Q12798 886 12770.5 894.0Q12743 902 12710 905V978L13187 1004L13202 989V844H13206Q13234 869 13274.0 904.0Q13314 939 13348 961Q13385 985 13445.0 1002.0Q13505 1019 13573 1019Q13736 1019 13817.5 926.5Q13899 834 13899 681V191Q13899 154 13910.0 132.0Q13921 110 13951 97Q13967 90 13990.5 83.0Q14014 76 14044 73ZM14708 -32Q14569 -32 14462.5 8.5Q14356 49 14287 119Q14218 190 14184.0 287.0Q14150 384 14150 498Q14150 602 14191.5 696.0Q14233 790 14304 861Q14377 934 14485.5 977.5Q14594 1021 14725 1021Q14909 1021 15016.0 951.5Q15123 882 15123 764Q15123 692 15085.0 648.0Q15047 604 14954 604Q14879 604 14828.5 640.0Q14778 676 14778 734Q14778 783 14794.0 831.0Q14810 879 14813 904Q14802 922 14785.0 931.5Q14768 941 14732 941Q14687 941 14650.0 920.0Q14613 899 14581 846Q14550 796 14531.5 712.0Q14513 628 14513 510Q14513 332 14596.5 223.0Q14680 114 14796 114Q14907 114 14972.5 163.5Q15038 213 15089 304L15164 252Q15133 191 15090.0 140.5Q15047 90 14987 51Q14924 10 14859.0 -11.0Q14794 -32 14708 -32ZM16300 239Q16265 182 16215.5 131.5Q16166 81 16103 45Q16036 7 15967.5 -12.5Q15899 -32 15810 -32Q15662 -32 15554.5 10.0Q15447 52 15377 123Q15307 194 15272.5 290.5Q15238 387 15238 500Q15238 602 15275.5 695.5Q15313 789 15382 862Q15450 933 15553.5 977.0Q15657 1021 15785 1021Q15925 1021 16015.0 987.0Q16105 953 16164 893Q16221 836 16247.0 758.5Q16273 681 16273 596V531H15597Q15597 326 15676.0 219.0Q15755 112 15927 112Q16021 112 16096.0 163.5Q16171 215 16224 294ZM15918 619Q15918 679 15912.0 742.0Q15906 805 15891 845Q15874 892 15844.5 916.0Q15815 940 15770 940Q15693 940 15647.0 862.0Q15601 784 15597 615ZM16872 166Q16872 87 16813.5 29.0Q16755 -29 16675 -29Q16594 -29 16535.5 28.5Q16477 86 16477 166Q16477 246 16535.5 304.5Q16594 363 16675 363Q16755 363 16813.5 304.0Q16872 245 16872 166ZM18877 1273Q19007 1188 19087.0 1046.5Q19167 905 19167 700Q19167 520 19095.5 386.5Q19024 253 18906 168Q18786 83 18633.5 41.5Q18481 0 18314 0H17599V78Q17631 79 17679.0 84.0Q17727 89 17743 96Q17779 111 17793.0 136.5Q17807 162 17807 198V1204Q17807 1238 17794.0 1265.5Q17781 1293 17743 1310Q17705 1327 17662.5 1333.0Q17620 1339 17597 1341V1419H18352Q18473 1419 18611.0 1388.0Q18749 1357 18877 1273ZM18673 256Q18722 336 18744.5 446.5Q18767 557 18767 701Q18767 842 18737.0 958.0Q18707 1074 18649 1156Q18591 1238 18504.5 1283.0Q18418 1328 18308 1328Q18273 1328 18228.5 1326.5Q18184 1325 18162 1324V247Q18162 211 18171.5 183.5Q18181 156 18204 135Q18227 114 18260.5 102.5Q18294 91 18348 91Q18461 91 18542.0 133.0Q18623 175 18673 256ZM20601 21 20124 -8 20109 6V137H20103Q20069 106 20036.5 76.5Q20004 47 19959 23Q19908 -4 19862.5 -17.0Q19817 -30 19730 -30Q19579 -30 19498.5 61.0Q19418 152 19418 318V768Q19418 807 19403.0 831.5Q19388 856 19363 875Q19343 890 19311.0 896.5Q19279 903 19253 905V978L19738 1004L19749 989V324Q19749 221 19788.5 172.0Q19828 123 19897 123Q19968 123 20024.5 160.0Q20081 197 20107 239V778Q20107 812 20094.0 839.0Q20081 866 20056 883Q20038 895 20004.5 899.0Q19971 903 19936 905V978L20421 1004L20436 989V217Q20436 182 20450.0 157.5Q20464 133 20491 116Q20510 104 20540.5 99.5Q20571 95 20601 94ZM21678 809Q21678 733 21631.0 675.5Q21584 618 21507 618Q21434 618 21383.5 655.0Q21333 692 21333 764Q21333 799 21338.0 818.5Q21343 838 21347 855Q21301 853 21250.0 823.0Q21199 793 21160 743V194Q21160 159 21171.0 136.0Q21182 113 21208 100Q21230 89 21279.5 81.5Q21329 74 21351 73V0H20682V73Q20707 75 20732.5 78.5Q20758 82 20776 88Q20808 99 20820.0 122.0Q20832 145 20832 182V764Q20832 800 20815.0 828.5Q20798 857 20774 874Q20756 886 20728.5 894.0Q20701 902 20668 905V978L21145 1004L21160 989V844H21164Q21233 924 21310.5 969.5Q21388 1015 21472 1015Q21565 1015 21621.5 957.5Q21678 900 21678 809ZM22890 21Q22846 2 22786.0 -14.0Q22726 -30 22659 -30Q22536 -30 22478.0 6.5Q22420 43 22399 111H22393Q22359 77 22327.5 53.0Q22296 29 22260 12Q22213 -10 22169.5 -20.5Q22126 -31 22048 -31Q21932 -31 21850.0 37.5Q21768 106 21768 219Q21768 284 21786.0 329.5Q21804 375 21837 410Q21867 442 21906.5 463.0Q21946 484 21993 502Q22083 535 22209.0 570.5Q22335 606 22393 634V730Q22393 755 22389.0 796.0Q22385 837 22372 865Q22358 897 22328.0 919.0Q22298 941 22249 941Q22205 941 22175.5 928.5Q22146 916 22128 903Q22131 883 22145.0 842.0Q22159 801 22159 763Q22159 746 22150.0 720.5Q22141 695 22124 680Q22101 660 22072.5 649.0Q22044 638 21985 638Q21901 638 21858.0 678.5Q21815 719 21815 784Q21815 840 21859.5 884.5Q21904 929 21968 958Q22031 988 22113.0 1004.5Q22195 1021 22265 1021Q22362 1021 22443.0 1009.5Q22524 998 22589 962Q22651 927 22687.5 860.5Q22724 794 22724 687Q22724 574 22719.5 419.0Q22715 264 22715 215Q22715 170 22728.5 144.0Q22742 118 22770 105Q22787 97 22823.5 95.5Q22860 94 22890 94ZM22393 542Q22337 523 22282.0 498.5Q22227 474 22192 447Q22155 419 22134.0 375.5Q22113 332 22113 273Q22113 195 22148.5 160.0Q22184 125 22236 125Q22291 125 22326.5 147.5Q22362 170 22389 203ZM24160 489Q24160 264 24011.5 116.0Q23863 -32 23635 -32Q23547 -32 23483.5 -19.5Q23420 -7 23376 11Q23330 30 23302.5 48.5Q23275 67 23259 79L23116 -51L23057 -28Q23062 45 23065.5 130.5Q23069 216 23069 361V1297Q23069 1335 23053.5 1367.5Q23038 1400 23012 1417Q22993 1429 22956.5 1438.0Q22920 1447 22889 1449V1522L23383 1548L23398 1532V882H23404Q23477 953 23554.0 986.0Q23631 1019 23708 1019Q23918 1019 24039.0 876.0Q24160 733 24160 489ZM23801 477Q23801 553 23789.5 623.5Q23778 694 23751 748Q23724 802 23680.0 834.5Q23636 867 23571 867Q23510 867 23470.0 847.0Q23430 827 23398 788V206Q23404 186 23420.5 153.5Q23437 121 23454 103Q23478 77 23505.0 63.5Q23532 50 23581 50Q23683 50 23742.0 161.5Q23801 273 23801 477ZM24898 0H24271V73Q24297 75 24321.5 78.0Q24346 81 24365 88Q24397 100 24408.5 122.5Q24420 145 24420 182V1290Q24420 1328 24404.5 1360.5Q24389 1393 24363 1410Q24343 1423 24302.5 1435.0Q24262 1447 24231 1449V1522L24734 1548L24749 1532V195Q24749 158 24762.0 135.0Q24775 112 24804 99Q24824 90 24846.0 83.0Q24868 76 24898 73ZM26069 239Q26034 182 25984.5 131.5Q25935 81 25872 45Q25805 7 25736.5 -12.5Q25668 -32 25579 -32Q25431 -32 25323.5 10.0Q25216 52 25146 123Q25076 194 25041.5 290.5Q25007 387 25007 500Q25007 602 25044.5 695.5Q25082 789 25151 862Q25219 933 25322.5 977.0Q25426 1021 25554 1021Q25694 1021 25784.0 987.0Q25874 953 25933 893Q25990 836 26016.0 758.5Q26042 681 26042 596V531H25366Q25366 326 25445.0 219.0Q25524 112 25696 112Q25790 112 25865.0 163.5Q25940 215 25993 294ZM25687 619Q25687 679 25681.0 742.0Q25675 805 25660 845Q25643 892 25613.5 916.0Q25584 940 25539 940Q25462 940 25416.0 862.0Q25370 784 25366 615ZM28672 0H28076V73Q28098 76 28122.0 78.0Q28146 80 28162 88Q28184 98 28190.0 121.5Q28196 145 28196 182V649Q28196 752 28159.5 803.5Q28123 855 28055 855Q28012 855 27978.5 841.5Q27945 828 27917 808Q27888 787 27872.0 766.0Q27856 745 27845 730V193Q27845 157 27853.5 134.5Q27862 112 27885 99Q27901 90 27921.5 83.0Q27942 76 27965 73V0H27394V73Q27413 75 27440.0 78.0Q27467 81 27480 88Q27501 99 27507.5 120.0Q27514 141 27514 182V649Q27514 752 27477.5 803.5Q27441 855 27373 855Q27330 855 27296.5 841.5Q27263 828 27235 808Q27206 787 27190.0 766.0Q27174 745 27163 730V193Q27163 158 27172.0 135.0Q27181 112 27204 99Q27220 90 27240.5 83.0Q27261 76 27284 73V0H26685V73Q26711 75 26736.0 78.0Q26761 81 26779 88Q26811 100 26823.0 122.5Q26835 145 26835 182V764Q26835 796 26818.0 826.5Q26801 857 26777 874Q26759 886 26731.5 894.0Q26704 902 26671 905V978L27148 1004L27163 989V848H27167Q27195 873 27233.5 907.5Q27272 942 27306 963Q27343 987 27401.0 1003.0Q27459 1019 27528 1019Q27642 1019 27718.5 969.5Q27795 920 27827 838H27836Q27865 865 27907.0 901.5Q27949 938 27984 960Q28023 985 28083.5 1002.0Q28144 1019 28213 1019Q28364 1019 28445.5 930.0Q28527 841 28527 677V191Q28527 154 28538.0 131.5Q28549 109 28578 97Q28594 90 28617.5 83.0Q28641 76 28672 73ZM29840 239Q29805 182 29755.5 131.5Q29706 81 29643 45Q29576 7 29507.5 -12.5Q29439 -32 29350 -32Q29202 -32 29094.5 10.0Q28987 52 28917 123Q28847 194 28812.5 290.5Q28778 387 28778 500Q28778 602 28815.5 695.5Q28853 789 28922 862Q28990 933 29093.5 977.0Q29197 1021 29325 1021Q29465 1021 29555.0 987.0Q29645 953 29704 893Q29761 836 29787.0 758.5Q29813 681 29813 596V531H29137Q29137 326 29216.0 219.0Q29295 112 29467 112Q29561 112 29636.0 163.5Q29711 215 29764 294ZM29458 619Q29458 679 29452.0 742.0Q29446 805 29431 845Q29414 892 29384.5 916.0Q29355 940 29310 940Q29233 940 29187.0 862.0Q29141 784 29137 615ZM31923 0H31327V73Q31349 76 31373.0 78.0Q31397 80 31413 88Q31435 98 31441.0 121.5Q31447 145 31447 182V649Q31447 752 31410.5 803.5Q31374 855 31306 855Q31263 855 31229.5 841.5Q31196 828 31168 808Q31139 787 31123.0 766.0Q31107 745 31096 730V193Q31096 157 31104.5 134.5Q31113 112 31136 99Q31152 90 31172.5 83.0Q31193 76 31216 73V0H30645V73Q30664 75 30691.0 78.0Q30718 81 30731 88Q30752 99 30758.5 120.0Q30765 141 30765 182V649Q30765 752 30728.5 803.5Q30692 855 30624 855Q30581 855 30547.5 841.5Q30514 828 30486 808Q30457 787 30441.0 766.0Q30425 745 30414 730V193Q30414 158 30423.0 135.0Q30432 112 30455 99Q30471 90 30491.5 83.0Q30512 76 30535 73V0H29936V73Q29962 75 29987.0 78.0Q30012 81 30030 88Q30062 100 30074.0 122.5Q30086 145 30086 182V764Q30086 796 30069.0 826.5Q30052 857 30028 874Q30010 886 29982.5 894.0Q29955 902 29922 905V978L30399 1004L30414 989V848H30418Q30446 873 30484.5 907.5Q30523 942 30557 963Q30594 987 30652.0 1003.0Q30710 1019 30779 1019Q30893 1019 30969.5 969.5Q31046 920 31078 838H31087Q31116 865 31158.0 901.5Q31200 938 31235 960Q31274 985 31334.5 1002.0Q31395 1019 31464 1019Q31615 1019 31696.5 930.0Q31778 841 31778 677V191Q31778 154 31789.0 131.5Q31800 109 31829 97Q31845 90 31868.5 83.0Q31892 76 31923 73ZM33037 874Q33111 805 33150.0 709.0Q33189 613 33189 501Q33189 390 33150.5 291.5Q33112 193 33038 123Q32959 48 32849.5 8.0Q32740 -32 32599 -32Q32477 -32 32374.5 3.0Q32272 38 32193 108Q32117 175 32073.0 273.5Q32029 372 32029 494Q32029 614 32067.5 707.5Q32106 801 32183 874Q32257 944 32365.5 982.5Q32474 1021 32608 1021Q32748 1021 32854.5 982.5Q32961 944 33037 874ZM32781 181Q32803 237 32813.5 317.0Q32824 397 32824 503Q32824 573 32814.0 663.0Q32804 753 32784 805Q32760 868 32717.5 904.0Q32675 940 32610 940Q32539 940 32496.5 901.0Q32454 862 32431 800Q32410 743 32402.0 666.5Q32394 590 32394 507Q32394 398 32401.0 326.5Q32408 255 32435 183Q32458 121 32501.0 85.0Q32544 49 32610 49Q32670 49 32713.0 82.5Q32756 116 32781 181ZM34314 809Q34314 733 34267.0 675.5Q34220 618 34143 618Q34070 618 34019.5 655.0Q33969 692 33969 764Q33969 799 33974.0 818.5Q33979 838 33983 855Q33937 853 33886.0 823.0Q33835 793 33796 743V194Q33796 159 33807.0 136.0Q33818 113 33844 100Q33866 89 33915.5 81.5Q33965 74 33987 73V0H33318V73Q33343 75 33368.5 78.5Q33394 82 33412 88Q33444 99 33456.0 122.0Q33468 145 33468 182V764Q33468 800 33451.0 828.5Q33434 857 33410 874Q33392 886 33364.5 894.0Q33337 902 33304 905V978L33781 1004L33796 989V844H33800Q33869 924 33946.5 969.5Q34024 1015 34108 1015Q34201 1015 34257.5 957.5Q34314 900 34314 809ZM35513 919Q35468 912 35425.5 885.0Q35383 858 35355 801Q35269 619 35178.0 413.5Q35087 208 34976 -31Q34914 -165 34856.0 -245.0Q34798 -325 34747 -368Q34699 -408 34652.0 -426.0Q34605 -444 34557 -444Q34462 -444 34403.5 -391.0Q34345 -338 34345 -272Q34345 -244 34351.5 -220.0Q34358 -196 34379 -170Q34395 -148 34428.5 -132.5Q34462 -117 34504 -117Q34560 -117 34611.0 -156.0Q34662 -195 34717 -264Q34750 -231 34798.5 -165.5Q34847 -100 34870 -31Q34751 219 34659.0 402.5Q34567 586 34453 812Q34428 860 34386.0 886.5Q34344 913 34297 919V992H34909V919Q34875 918 34830.5 904.0Q34786 890 34786 868Q34786 860 34789.0 850.5Q34792 841 34800 823Q34834 753 34896.5 628.5Q34959 504 35042 337Q35104 479 35147.5 581.5Q35191 684 35232 783Q35242 808 35243.5 822.5Q35245 837 35245 842Q35245 860 35227.5 873.5Q35210 887 35186 897Q35161 907 35138.0 912.0Q35115 917 35100 919V992H35513ZM36010 166Q36010 87 35951.5 29.0Q35893 -29 35813 -29Q35732 -29 35673.5 28.5Q35615 86 35615 166Q35615 246 35673.5 304.5Q35732 363 35813 363Q35893 363 35951.5 304.0Q36010 245 36010 166Z" fill="#174c3c" transform="translate(80.000 330.000) scale(0.0224609 -0.0224609)"/><path d="M1216 0H1016L776 402Q743 458 712.0 497.5Q681 537 648.5 562.0Q616 587 578.5 598.5Q541 610 494 610H356V0H188V1434H616Q710 1434 789.5 1410.5Q869 1387 927.5 1339.0Q986 1291 1019.0 1219.5Q1052 1148 1052 1052Q1052 977 1029.5 914.5Q1007 852 965.5 803.0Q924 754 865.5 719.5Q807 685 734 666V662Q770 646 796.5 625.5Q823 605 847.0 577.0Q871 549 894.5 513.5Q918 478 947 431ZM356 1282V762H584Q647 762 700.5 781.0Q754 800 793.0 835.5Q832 871 854.0 922.5Q876 974 876 1038Q876 1153 801.5 1217.5Q727 1282 586 1282ZM2214 471H1491Q1495 300 1583.0 207.0Q1671 114 1825 114Q1998 114 2143 228V74Q2008 -24 1786 -24Q1569 -24 1445.0 115.5Q1321 255 1321 508Q1321 747 1456.5 897.5Q1592 1048 1793 1048Q1994 1048 2104.0 918.0Q2214 788 2214 557ZM2046 610Q2045 752 1977.5 831.0Q1910 910 1790 910Q1674 910 1593.0 827.0Q1512 744 1493 610ZM2626 0H2462V1516H2626ZM3042 1284Q2998 1284 2967.0 1314.0Q2936 1344 2936 1390Q2936 1436 2967.0 1466.5Q2998 1497 3042 1497Q3087 1497 3118.5 1466.5Q3150 1436 3150 1390Q3150 1346 3118.5 1315.0Q3087 1284 3042 1284ZM3122 0H2958V1024H3122ZM4187 0H4023V160H4019Q3912 -24 3704 -24Q3551 -24 3464.5 57.0Q3378 138 3378 272Q3378 559 3716 606L4023 649Q4023 910 3812 910Q3627 910 3478 784V952Q3629 1048 3826 1048Q4187 1048 4187 666ZM4023 518 3776 484Q3662 468 3604.0 427.5Q3546 387 3546 284Q3546 209 3599.5 161.5Q3653 114 3742 114Q3864 114 3943.5 199.5Q4023 285 4023 416ZM4664 148H4660V0H4496V1516H4660V844H4664Q4785 1048 5018 1048Q5215 1048 5326.5 910.5Q5438 773 5438 542Q5438 285 5313.0 130.5Q5188 -24 4971 -24Q4768 -24 4664 148ZM4660 561V418Q4660 291 4742.5 202.5Q4825 114 4952 114Q5101 114 5185.5 228.0Q5270 342 5270 545Q5270 716 5191.0 813.0Q5112 910 4977 910Q4834 910 4747.0 810.5Q4660 711 4660 561ZM5864 0H5700V1516H5864ZM7019 471H6296Q6300 300 6388.0 207.0Q6476 114 6630 114Q6803 114 6948 228V74Q6813 -24 6591 -24Q6374 -24 6250.0 115.5Q6126 255 6126 508Q6126 747 6261.5 897.5Q6397 1048 6598 1048Q6799 1048 6909.0 918.0Q7019 788 7019 557ZM6851 610Q6850 752 6782.5 831.0Q6715 910 6595 910Q6479 910 6398.0 827.0Q6317 744 6298 610ZM9282 0H9118V588Q9118 758 9065.5 834.0Q9013 910 8889 910Q8784 910 8710.5 814.0Q8637 718 8637 584V0H8473V608Q8473 910 8240 910Q8132 910 8062.0 819.5Q7992 729 7992 584V0H7828V1024H7992V862H7996Q8105 1048 8314 1048Q8419 1048 8497.0 989.5Q8575 931 8604 836Q8718 1048 8944 1048Q9282 1048 9282 631ZM10415 471H9692Q9696 300 9784.0 207.0Q9872 114 10026 114Q10199 114 10344 228V74Q10209 -24 9987 -24Q9770 -24 9646.0 115.5Q9522 255 9522 508Q9522 747 9657.5 897.5Q9793 1048 9994 1048Q10195 1048 10305.0 918.0Q10415 788 10415 557ZM10247 610Q10246 752 10178.5 831.0Q10111 910 9991 910Q9875 910 9794.0 827.0Q9713 744 9694 610ZM12117 0H11953V588Q11953 758 11900.5 834.0Q11848 910 11724 910Q11619 910 11545.5 814.0Q11472 718 11472 584V0H11308V608Q11308 910 11075 910Q10967 910 10897.0 819.5Q10827 729 10827 584V0H10663V1024H10827V862H10831Q10940 1048 11149 1048Q11254 1048 11332.0 989.5Q11410 931 11439 836Q11553 1048 11779 1048Q12117 1048 12117 631ZM12855 -24Q12628 -24 12492.5 119.5Q12357 263 12357 500Q12357 758 12498.0 903.0Q12639 1048 12879 1048Q13108 1048 13236.5 907.0Q13365 766 13365 516Q13365 271 13226.5 123.5Q13088 -24 12855 -24ZM12867 910Q12709 910 12617.0 802.5Q12525 695 12525 506Q12525 324 12618.0 219.0Q12711 114 12867 114Q13026 114 13111.5 217.0Q13197 320 13197 510Q13197 702 13111.5 806.0Q13026 910 12867 910ZM14161 858Q14118 891 14037 891Q13932 891 13861.5 792.0Q13791 693 13791 522V0H13627V1024H13791V813H13795Q13830 921 13902.0 981.5Q13974 1042 14063 1042Q14127 1042 14161 1028ZM15154 1024 14683 -164Q14557 -482 14329 -482Q14265 -482 14222 -469V-322Q14275 -340 14319 -340Q14443 -340 14505 -192L14587 2L14187 1024H14369L14646 236Q14651 221 14667 158H14673Q14678 182 14693 234L14984 1024ZM16319 -24Q16092 -24 15956.5 119.5Q15821 263 15821 500Q15821 758 15962.0 903.0Q16103 1048 16343 1048Q16572 1048 16700.5 907.0Q16829 766 16829 516Q16829 271 16690.5 123.5Q16552 -24 16319 -24ZM16331 910Q16173 910 16081.0 802.5Q15989 695 15989 506Q15989 324 16082.0 219.0Q16175 114 16331 114Q16490 114 16575.5 217.0Q16661 320 16661 510Q16661 702 16575.5 806.0Q16490 910 16331 910ZM17597 1372Q17549 1399 17488 1399Q17316 1399 17316 1182V1024H17556V884H17316V0H17153V884H16978V1024H17153V1190Q17153 1351 17246.0 1444.5Q17339 1538 17478 1538Q17553 1538 17597 1520ZM18991 47Q18873 -24 18711 -24Q18492 -24 18357.5 118.5Q18223 261 18223 488Q18223 741 18368.0 894.5Q18513 1048 18755 1048Q18890 1048 18993 998V830Q18879 910 18749 910Q18592 910 18491.5 797.5Q18391 685 18391 502Q18391 322 18485.5 218.0Q18580 114 18739 114Q18873 114 18991 203ZM19667 -24Q19440 -24 19304.5 119.5Q19169 263 19169 500Q19169 758 19310.0 903.0Q19451 1048 19691 1048Q19920 1048 20048.5 907.0Q20177 766 20177 516Q20177 271 20038.5 123.5Q19900 -24 19667 -24ZM19679 910Q19521 910 19429.0 802.5Q19337 695 19337 506Q19337 324 19430.0 219.0Q19523 114 19679 114Q19838 114 19923.5 217.0Q20009 320 20009 510Q20009 702 19923.5 806.0Q19838 910 19679 910ZM21893 0H21729V588Q21729 758 21676.5 834.0Q21624 910 21500 910Q21395 910 21321.5 814.0Q21248 718 21248 584V0H21084V608Q21084 910 20851 910Q20743 910 20673.0 819.5Q20603 729 20603 584V0H20439V1024H20603V862H20607Q20716 1048 20925 1048Q21030 1048 21108.0 989.5Q21186 931 21215 836Q21329 1048 21555 1048Q21893 1048 21893 631ZM22371 148H22367V-471H22203V1024H22367V844H22371Q22492 1048 22725 1048Q22923 1048 23034.0 910.5Q23145 773 23145 542Q23145 285 23020.0 130.5Q22895 -24 22678 -24Q22479 -24 22371 148ZM22367 561V418Q22367 291 22449.5 202.5Q22532 114 22659 114Q22808 114 22892.5 228.0Q22977 342 22977 545Q22977 716 22898.0 813.0Q22819 910 22684 910Q22541 910 22454.0 810.5Q22367 711 22367 561ZM24230 471H23507Q23511 300 23599.0 207.0Q23687 114 23841 114Q24014 114 24159 228V74Q24024 -24 23802 -24Q23585 -24 23461.0 115.5Q23337 255 23337 508Q23337 747 23472.5 897.5Q23608 1048 23809 1048Q24010 1048 24120.0 918.0Q24230 788 24230 557ZM24062 610Q24061 752 23993.5 831.0Q23926 910 23806 910Q23690 910 23609.0 827.0Q23528 744 23509 610ZM24953 10Q24895 -22 24800 -22Q24531 -22 24531 278V884H24355V1024H24531V1274L24695 1327V1024H24953V884H24695V307Q24695 204 24730.0 160.0Q24765 116 24846 116Q24908 116 24953 150ZM25256 1284Q25212 1284 25181.0 1314.0Q25150 1344 25150 1390Q25150 1436 25181.0 1466.5Q25212 1497 25256 1497Q25301 1497 25332.5 1466.5Q25364 1436 25364 1390Q25364 1346 25332.5 1315.0Q25301 1284 25256 1284ZM25336 0H25172V1024H25336ZM26143 10Q26085 -22 25990 -22Q25721 -22 25721 278V884H25545V1024H25721V1274L25885 1327V1024H26143V884H25885V307Q25885 204 25920.0 160.0Q25955 116 26036 116Q26098 116 26143 150ZM26790 -24Q26563 -24 26427.5 119.5Q26292 263 26292 500Q26292 758 26433.0 903.0Q26574 1048 26814 1048Q27043 1048 27171.5 907.0Q27300 766 27300 516Q27300 271 27161.5 123.5Q27023 -24 26790 -24ZM26802 910Q26644 910 26552.0 802.5Q26460 695 26460 506Q26460 324 26553.0 219.0Q26646 114 26802 114Q26961 114 27046.5 217.0Q27132 320 27132 510Q27132 702 27046.5 806.0Q26961 910 26802 910ZM28096 858Q28053 891 27972 891Q27867 891 27796.5 792.0Q27726 693 27726 522V0H27562V1024H27726V813H27730Q27765 921 27837.0 981.5Q27909 1042 27998 1042Q28062 1042 28096 1028ZM29533 47Q29415 -24 29253 -24Q29034 -24 28899.5 118.5Q28765 261 28765 488Q28765 741 28910.0 894.5Q29055 1048 29297 1048Q29432 1048 29535 998V830Q29421 910 29291 910Q29134 910 29033.5 797.5Q28933 685 28933 502Q28933 322 29027.5 218.0Q29122 114 29281 114Q29415 114 29533 203ZM30631 0H30467V590Q30467 910 30229 910Q30109 910 30027.0 817.5Q29945 725 29945 580V0H29781V1516H29945V854H29949Q30067 1048 30285 1048Q30631 1048 30631 631ZM31673 0H31509V160H31505Q31398 -24 31190 -24Q31037 -24 30950.5 57.0Q30864 138 30864 272Q30864 559 31202 606L31509 649Q31509 910 31298 910Q31113 910 30964 784V952Q31115 1048 31312 1048Q31673 1048 31673 666ZM31509 518 31262 484Q31148 468 31090.0 427.5Q31032 387 31032 284Q31032 209 31085.5 161.5Q31139 114 31228 114Q31350 114 31429.5 199.5Q31509 285 31509 416ZM32832 0H32668V584Q32668 910 32430 910Q32307 910 32226.5 817.5Q32146 725 32146 584V0H31982V1024H32146V854H32150Q32266 1048 32486 1048Q32654 1048 32743.0 939.5Q32832 831 32832 626ZM34015 82Q34015 -482 33475 -482Q33285 -482 33143 -410V-246Q33316 -342 33473 -342Q33851 -342 33851 60V172H33847Q33730 -24 33495 -24Q33304 -24 33187.5 112.5Q33071 249 33071 479Q33071 740 33196.5 894.0Q33322 1048 33540 1048Q33747 1048 33847 882H33851V1024H34015ZM33851 463V614Q33851 736 33768.5 823.0Q33686 910 33563 910Q33411 910 33325.0 799.5Q33239 689 33239 490Q33239 319 33321.5 216.5Q33404 114 33540 114Q33678 114 33764.5 212.0Q33851 310 33851 463ZM35170 471H34447Q34451 300 34539.0 207.0Q34627 114 34781 114Q34954 114 35099 228V74Q34964 -24 34742 -24Q34525 -24 34401.0 115.5Q34277 255 34277 508Q34277 747 34412.5 897.5Q34548 1048 34749 1048Q34950 1048 35060.0 918.0Q35170 788 35170 557ZM35002 610Q35001 752 34933.5 831.0Q34866 910 34746 910Q34630 910 34549.0 827.0Q34468 744 34449 610ZM35356 37V213Q35490 114 35651 114Q35867 114 35867 258Q35867 299 35848.5 327.5Q35830 356 35798.5 378.0Q35767 400 35724.5 417.5Q35682 435 35633 454Q35565 481 35513.5 508.5Q35462 536 35427.5 570.5Q35393 605 35375.5 649.0Q35358 693 35358 752Q35358 824 35391.0 879.5Q35424 935 35479.0 972.5Q35534 1010 35604.5 1029.0Q35675 1048 35750 1048Q35883 1048 35988 1002V836Q35875 910 35728 910Q35682 910 35645.0 899.5Q35608 889 35581.5 870.0Q35555 851 35540.5 824.5Q35526 798 35526 766Q35526 726 35540.5 699.0Q35555 672 35583.0 651.0Q35611 630 35651.0 613.0Q35691 596 35742 576Q35810 550 35864.0 522.5Q35918 495 35956.0 460.5Q35994 426 36014.5 381.0Q36035 336 36035 274Q36035 198 36001.5 142.0Q35968 86 35912.0 49.0Q35856 12 35783.0 -6.0Q35710 -24 35630 -24Q35472 -24 35356 37ZM37354 1372Q37306 1399 37245 1399Q37073 1399 37073 1182V1024H37313V884H37073V0H36910V884H36735V1024H36910V1190Q36910 1351 37003.0 1444.5Q37096 1538 37235 1538Q37310 1538 37354 1520ZM37917 -24Q37690 -24 37554.5 119.5Q37419 263 37419 500Q37419 758 37560.0 903.0Q37701 1048 37941 1048Q38170 1048 38298.5 907.0Q38427 766 38427 516Q38427 271 38288.5 123.5Q38150 -24 37917 -24ZM37929 910Q37771 910 37679.0 802.5Q37587 695 37587 506Q37587 324 37680.0 219.0Q37773 114 37929 114Q38088 114 38173.5 217.0Q38259 320 38259 510Q38259 702 38173.5 806.0Q38088 910 37929 910ZM39223 858Q39180 891 39099 891Q38994 891 38923.5 792.0Q38853 693 38853 522V0H38689V1024H38853V813H38857Q38892 921 38964.0 981.5Q39036 1042 39125 1042Q39189 1042 39223 1028ZM41094 0H40908L40756 402H40148L40005 0H39818L40368 1434H40542ZM40701 553 40476 1164Q40465 1194 40454 1260H40450Q40440 1199 40427 1164L40204 553ZM41473 0H41305V1434H41473ZM43122 0H42958V160H42954Q42847 -24 42639 -24Q42486 -24 42399.5 57.0Q42313 138 42313 272Q42313 559 42651 606L42958 649Q42958 910 42747 910Q42562 910 42413 784V952Q42564 1048 42761 1048Q43122 1048 43122 666ZM42958 518 42711 484Q42597 468 42539.0 427.5Q42481 387 42481 284Q42481 209 42534.5 161.5Q42588 114 42677 114Q42799 114 42878.5 199.5Q42958 285 42958 416ZM44305 82Q44305 -482 43765 -482Q43575 -482 43433 -410V-246Q43606 -342 43763 -342Q44141 -342 44141 60V172H44137Q44020 -24 43785 -24Q43594 -24 43477.5 112.5Q43361 249 43361 479Q43361 740 43486.5 894.0Q43612 1048 43830 1048Q44037 1048 44137 882H44141V1024H44305ZM44141 463V614Q44141 736 44058.5 823.0Q43976 910 43853 910Q43701 910 43615.0 799.5Q43529 689 43529 490Q43529 319 43611.5 216.5Q43694 114 43830 114Q43968 114 44054.5 212.0Q44141 310 44141 463ZM45460 471H44737Q44741 300 44829.0 207.0Q44917 114 45071 114Q45244 114 45389 228V74Q45254 -24 45032 -24Q44815 -24 44691.0 115.5Q44567 255 44567 508Q44567 747 44702.5 897.5Q44838 1048 45039 1048Q45240 1048 45350.0 918.0Q45460 788 45460 557ZM45292 610Q45291 752 45223.5 831.0Q45156 910 45036 910Q44920 910 44839.0 827.0Q44758 744 44739 610ZM46558 0H46394V584Q46394 910 46156 910Q46033 910 45952.5 817.5Q45872 725 45872 584V0H45708V1024H45872V854H45876Q45992 1048 46212 1048Q46380 1048 46469.0 939.5Q46558 831 46558 626ZM47342 10Q47284 -22 47189 -22Q46920 -22 46920 278V884H46744V1024H46920V1274L47084 1327V1024H47342V884H47084V307Q47084 204 47119.0 160.0Q47154 116 47235 116Q47297 116 47342 150ZM47499 37V213Q47633 114 47794 114Q48010 114 48010 258Q48010 299 47991.5 327.5Q47973 356 47941.5 378.0Q47910 400 47867.5 417.5Q47825 435 47776 454Q47708 481 47656.5 508.5Q47605 536 47570.5 570.5Q47536 605 47518.5 649.0Q47501 693 47501 752Q47501 824 47534.0 879.5Q47567 935 47622.0 972.5Q47677 1010 47747.5 1029.0Q47818 1048 47893 1048Q48026 1048 48131 1002V836Q48018 910 47871 910Q47825 910 47788.0 899.5Q47751 889 47724.5 870.0Q47698 851 47683.5 824.5Q47669 798 47669 766Q47669 726 47683.5 699.0Q47698 672 47726.0 651.0Q47754 630 47794.0 613.0Q47834 596 47885 576Q47953 550 48007.0 522.5Q48061 495 48099.0 460.5Q48137 426 48157.5 381.0Q48178 336 48178 274Q48178 198 48144.5 142.0Q48111 86 48055.0 49.0Q47999 12 47926.0 -6.0Q47853 -24 47773 -24Q47615 -24 47499 37ZM48487 -22Q48441 -22 48408.5 11.0Q48376 44 48376 90Q48376 136 48408.5 169.5Q48441 203 48487 203Q48534 203 48567.0 169.5Q48600 136 48600 90Q48600 44 48567.0 11.0Q48534 -22 48487 -22Z" fill="#5b6d66" transform="translate(82.000 408.000) scale(0.0131836 -0.0131836)"/><path d="M1020 395Q1020 288 980.5 209.0Q941 130 870.0 78.5Q799 27 701.0 2.0Q603 -23 487 -23Q384 -23 288.0 -11.0Q192 1 98 29V272Q144 256 194.0 242.0Q244 228 294.5 217.5Q345 207 395.0 201.0Q445 195 492 195Q562 195 611.0 207.0Q660 219 691.0 240.0Q722 261 736.0 290.0Q750 319 750 354Q750 402 722.5 434.5Q695 467 650.0 492.0Q605 517 547.5 537.0Q490 557 430.5 580.0Q371 603 313.5 632.0Q256 661 211.0 704.0Q166 747 138.5 806.5Q111 866 111 950Q111 1027 139.0 1096.0Q167 1165 227.0 1216.5Q287 1268 381.0 1298.5Q475 1329 608 1329Q647 1329 689.5 1325.5Q732 1322 773.5 1316.5Q815 1311 853.5 1303.5Q892 1296 924 1288V1063Q892 1075 854.0 1085.0Q816 1095 775.5 1102.5Q735 1110 694.0 1114.0Q653 1118 616 1118Q551 1118 506.0 1107.5Q461 1097 432.0 1078.5Q403 1060 390.0 1033.0Q377 1006 377 973Q377 932 404.5 902.5Q432 873 477.5 849.5Q523 826 580.5 805.5Q638 785 698.5 761.5Q759 738 816.5 708.0Q874 678 919.5 635.0Q965 592 992.5 533.5Q1020 475 1020 395ZM2215 659Q2215 481 2173.5 352.0Q2132 223 2059.5 140.0Q1987 57 1889.5 17.0Q1792 -23 1681 -23Q1423 -23 1293.0 148.5Q1163 320 1163 647Q1163 825 1204.5 954.0Q1246 1083 1318.5 1166.0Q1391 1249 1488.5 1289.0Q1586 1329 1697 1329Q1955 1329 2085.0 1158.0Q2215 987 2215 659ZM1955 647Q1955 879 1893.0 993.0Q1831 1107 1689 1107Q1618 1107 1568.0 1077.5Q1518 1048 1485.5 991.0Q1453 934 1438.0 850.5Q1423 767 1423 659Q1423 427 1485.5 313.0Q1548 199 1689 199Q1760 199 1810.5 228.5Q1861 258 1893.0 315.0Q1925 372 1940.0 455.5Q1955 539 1955 647ZM3291 481Q3291 356 3257.5 261.5Q3224 167 3161.5 104.0Q3099 41 3009.0 9.0Q2919 -23 2807 -23Q2681 -23 2591.0 9.0Q2501 41 2445.0 101.0Q2389 161 2364.0 247.0Q2339 333 2339 440V1307H2585V455Q2585 389 2596.5 338.0Q2608 287 2636.5 251.5Q2665 216 2708.0 198.0Q2751 180 2816 180Q2877 180 2919.0 195.5Q2961 211 2989.0 245.5Q3017 280 3031.0 334.0Q3045 388 3045 465V1307H3291ZM4166 0 3982 420Q3956 480 3909.5 510.5Q3863 541 3800 541H3753V0H3507V1307H3888Q3996 1307 4084.0 1288.5Q4172 1270 4234.0 1227.0Q4296 1184 4329.5 1115.0Q4363 1046 4363 946Q4363 874 4342.0 818.0Q4321 762 4283.0 721.5Q4245 681 4192.5 656.0Q4140 631 4078 621Q4126 611 4166.0 566.5Q4206 522 4246 438L4455 0ZM4105 922Q4105 1018 4044.0 1060.0Q3983 1102 3861 1102H3753V733H3853Q3910 733 3956.5 745.0Q4003 757 4036.0 781.0Q4069 805 4087.0 840.5Q4105 876 4105 922ZM5508 51Q5421 16 5339.5 -1.0Q5258 -18 5170 -18Q5029 -18 4920.5 23.5Q4812 65 4737.5 147.0Q4663 229 4624.5 350.5Q4586 472 4586 633Q4586 798 4628.0 926.5Q4670 1055 4748.0 1143.5Q4826 1232 4937.5 1278.5Q5049 1325 5188 1325Q5233 1325 5272.5 1323.0Q5312 1321 5350.0 1315.5Q5388 1310 5427.0 1301.0Q5466 1292 5508 1278V1034Q5423 1074 5346.0 1091.0Q5269 1108 5206 1108Q5113 1108 5047.0 1074.5Q4981 1041 4938.5 980.5Q4896 920 4876.0 836.5Q4856 753 4856 653Q4856 547 4876.5 463.5Q4897 380 4940.0 322.0Q4983 264 5050.0 233.5Q5117 203 5209 203Q5242 203 5280.5 209.5Q5319 216 5358.5 226.5Q5398 237 5436.5 251.5Q5475 266 5508 281ZM5814 0V1307H6601V1099H6064V774H6576V571H6064V208H6601V0ZM7008 436V653H7630V436ZM8011 0V1307H8433Q8656 1307 8767.5 1229.0Q8879 1151 8879 993Q8879 944 8867.5 897.5Q8856 851 8832.0 812.0Q8808 773 8772.0 743.0Q8736 713 8687 696Q8736 688 8780.5 664.5Q8825 641 8858.5 603.5Q8892 566 8911.5 515.0Q8931 464 8931 401Q8931 201 8797.0 100.5Q8663 0 8410 0ZM8623 950Q8623 987 8611.0 1017.0Q8599 1047 8572.5 1068.0Q8546 1089 8504.5 1100.5Q8463 1112 8404 1112H8255V766H8404Q8464 766 8505.5 780.5Q8547 795 8573.5 820.5Q8600 846 8611.5 879.0Q8623 912 8623 950ZM8427 201Q8486 201 8530.5 216.0Q8575 231 8605.0 257.5Q8635 284 8650.5 320.0Q8666 356 8666 397Q8666 482 8602.5 530.0Q8539 578 8408 578H8255V201ZM9858 0 9786 258H9330L9256 0H9012L9399 1307H9743L10130 0ZM9561 1067 9389 459H9731ZM11138 51Q11051 16 10969.5 -1.0Q10888 -18 10800 -18Q10659 -18 10550.5 23.5Q10442 65 10367.5 147.0Q10293 229 10254.5 350.5Q10216 472 10216 633Q10216 798 10258.0 926.5Q10300 1055 10378.0 1143.5Q10456 1232 10567.5 1278.5Q10679 1325 10818 1325Q10863 1325 10902.5 1323.0Q10942 1321 10980.0 1315.5Q11018 1310 11057.0 1301.0Q11096 1292 11138 1278V1034Q11053 1074 10976.0 1091.0Q10899 1108 10836 1108Q10743 1108 10677.0 1074.5Q10611 1041 10568.5 980.5Q10526 920 10506.0 836.5Q10486 753 10486 653Q10486 547 10506.5 463.5Q10527 380 10570.0 322.0Q10613 264 10680.0 233.5Q10747 203 10839 203Q10872 203 10910.5 209.5Q10949 216 10988.5 226.5Q11028 237 11066.5 251.5Q11105 266 11138 281ZM12032 0 11639 632V0H11389V1307H11639V712L12030 1307H12327L11883 684L12350 0ZM12570 0V1307H13357V1099H12820V774H13332V571H12820V208H13357V0ZM14585 670Q14585 518 14547.5 394.0Q14510 270 14430.5 182.5Q14351 95 14227.0 47.5Q14103 0 13930 0H13598V1307H13985Q14135 1307 14247.5 1269.5Q14360 1232 14435.0 1154.0Q14510 1076 14547.5 956.0Q14585 836 14585 670ZM14321 654Q14321 760 14304.0 843.0Q14287 926 14246.5 983.5Q14206 1041 14138.0 1071.0Q14070 1101 13969 1101H13844V206H13952Q14133 206 14227.0 314.0Q14321 422 14321 654ZM16768 51Q16681 16 16599.5 -1.0Q16518 -18 16430 -18Q16289 -18 16180.5 23.5Q16072 65 15997.5 147.0Q15923 229 15884.5 350.5Q15846 472 15846 633Q15846 798 15888.0 926.5Q15930 1055 16008.0 1143.5Q16086 1232 16197.5 1278.5Q16309 1325 16448 1325Q16493 1325 16532.5 1323.0Q16572 1321 16610.0 1315.5Q16648 1310 16687.0 1301.0Q16726 1292 16768 1278V1034Q16683 1074 16606.0 1091.0Q16529 1108 16466 1108Q16373 1108 16307.0 1074.5Q16241 1041 16198.5 980.5Q16156 920 16136.0 836.5Q16116 753 16116 653Q16116 547 16136.5 463.5Q16157 380 16200.0 322.0Q16243 264 16310.0 233.5Q16377 203 16469 203Q16502 203 16540.5 209.5Q16579 216 16618.5 226.5Q16658 237 16696.5 251.5Q16735 266 16768 281ZM17675 0V569H17231V0H16985V1307H17231V782H17675V1307H17921V0ZM18866 0 18794 258H18338L18264 0H18020L18407 1307H18751L19138 0ZM18569 1067 18397 459H18739ZM19882 0 19532 780 19460 948V406V0H19236V1307H19538L19895 522L19958 369V946V1307H20182V0ZM20837 553V756H21302V59Q21212 17 21114.0 -3.0Q21016 -23 20901 -23Q20765 -23 20656.5 19.0Q20548 61 20472.0 144.0Q20396 227 20355.5 350.0Q20315 473 20315 635Q20315 798 20357.5 927.0Q20400 1056 20481.5 1145.5Q20563 1235 20681.5 1282.0Q20800 1329 20952 1329Q21042 1329 21127.5 1313.5Q21213 1298 21298 1272V1029Q21224 1064 21134.5 1086.5Q21045 1109 20954 1109Q20862 1109 20791.5 1077.0Q20721 1045 20673.5 986.0Q20626 927 20601.5 841.0Q20577 755 20577 647Q20577 543 20596.0 459.5Q20615 376 20657.5 317.5Q20700 259 20767.0 228.0Q20834 197 20930 197Q20953 197 20970.0 198.5Q20987 200 21002.0 203.0Q21017 206 21030.5 210.0Q21044 214 21059 219V553ZM21578 0V1307H22365V1099H21828V774H22340V571H21828V208H22365V0ZM24431 0V569H23987V0H23741V1307H23987V782H24431V1307H24677V0ZM24922 1106V1307H25748V1106H25460V203H25748V0H24922V203H25210V1106ZM26918 395Q26918 288 26878.5 209.0Q26839 130 26768.0 78.5Q26697 27 26599.0 2.0Q26501 -23 26385 -23Q26282 -23 26186.0 -11.0Q26090 1 25996 29V272Q26042 256 26092.0 242.0Q26142 228 26192.5 217.5Q26243 207 26293.0 201.0Q26343 195 26390 195Q26460 195 26509.0 207.0Q26558 219 26589.0 240.0Q26620 261 26634.0 290.0Q26648 319 26648 354Q26648 402 26620.5 434.5Q26593 467 26548.0 492.0Q26503 517 26445.5 537.0Q26388 557 26328.5 580.0Q26269 603 26211.5 632.0Q26154 661 26109.0 704.0Q26064 747 26036.5 806.5Q26009 866 26009 950Q26009 1027 26037.0 1096.0Q26065 1165 26125.0 1216.5Q26185 1268 26279.0 1298.5Q26373 1329 26506 1329Q26545 1329 26587.5 1325.5Q26630 1322 26671.5 1316.5Q26713 1311 26751.5 1303.5Q26790 1296 26822 1288V1063Q26790 1075 26752.0 1085.0Q26714 1095 26673.5 1102.5Q26633 1110 26592.0 1114.0Q26551 1118 26514 1118Q26449 1118 26404.0 1107.5Q26359 1097 26330.0 1078.5Q26301 1060 26288.0 1033.0Q26275 1006 26275 973Q26275 932 26302.5 902.5Q26330 873 26375.5 849.5Q26421 826 26478.5 805.5Q26536 785 26596.5 761.5Q26657 738 26714.5 708.0Q26772 678 26817.5 635.0Q26863 592 26890.5 533.5Q26918 475 26918 395ZM27713 1102V0H27461V1102H27103V1307H28071V1102ZM29239 659Q29239 481 29197.5 352.0Q29156 223 29083.5 140.0Q29011 57 28913.5 17.0Q28816 -23 28705 -23Q28447 -23 28317.0 148.5Q28187 320 28187 647Q28187 825 28228.5 954.0Q28270 1083 28342.5 1166.0Q28415 1249 28512.5 1289.0Q28610 1329 28721 1329Q28979 1329 29109.0 1158.0Q29239 987 29239 659ZM28979 647Q28979 879 28917.0 993.0Q28855 1107 28713 1107Q28642 1107 28592.0 1077.5Q28542 1048 28509.5 991.0Q28477 934 28462.0 850.5Q28447 767 28447 659Q28447 427 28509.5 313.0Q28572 199 28713 199Q28784 199 28834.5 228.5Q28885 258 28917.0 315.0Q28949 372 28964.0 455.5Q28979 539 28979 647ZM30064 0 29880 420Q29854 480 29807.5 510.5Q29761 541 29698 541H29651V0H29405V1307H29786Q29894 1307 29982.0 1288.5Q30070 1270 30132.0 1227.0Q30194 1184 30227.5 1115.0Q30261 1046 30261 946Q30261 874 30240.0 818.0Q30219 762 30181.0 721.5Q30143 681 30090.5 656.0Q30038 631 29976 621Q30024 611 30064.0 566.5Q30104 522 30144 438L30353 0ZM30003 922Q30003 1018 29942.0 1060.0Q29881 1102 29759 1102H29651V733H29751Q29808 733 29854.5 745.0Q29901 757 29934.0 781.0Q29967 805 29985.0 840.5Q30003 876 30003 922ZM31087 463V0H30837V461L30412 1307H30685L30877 903L30965 705L31053 909L31254 1307H31516Z" fill="#174c3c" transform="translate(82.000 512.000) scale(0.0092773 -0.0092773)"/><g transform="translate(930 80) scale(0.235)"><rect x="165" y="150" width="650" height="700" rx="96" fill="#0d3328"/><rect x="829" y="272" width="70" height="196" rx="22" fill="#f18a68"/><rect x="305" y="415" width="330" height="104" rx="34" fill="#cbef84"/></g></svg>